<?xml version="1.0" standalone="no"?>
<!DOCTYPE svg PUBLIC "-//W3C//DTD SVG 20010904//EN"
 "http://www.w3.org/TR/2001/REC-SVG-20010904/DTD/svg10.dtd">
<svg version="1.0" xmlns="http://www.w3.org/2000/svg"
 width="193.000000pt" height="193.000000pt" viewBox="0 0 193.000000 193.000000"
 preserveAspectRatio="xMidYMid meet">
<metadata>
Created by potrace 1.11, written by Peter Selinger 2001-2013
</metadata>
<g transform="translate(0.000000,193.000000) scale(0.100000,-0.100000)"
fill="#000000" stroke="none">
<path d="M1567 1326 c-70 -25 -103 -73 -94 -138 9 -64 57 -102 162 -127 62
-15 95 -36 95 -60 0 -25 -32 -51 -62 -51 -33 0 -78 36 -78 62 0 20 -4 20 -67
14 -37 -4 -68 -8 -70 -10 -1 -1 3 -19 9 -40 23 -75 94 -116 200 -116 134 0
226 90 197 194 -14 52 -54 84 -133 107 -39 11 -82 24 -96 28 -18 5 -25 15 -25
32 0 21 5 24 42 27 36 3 44 -1 59 -24 17 -25 21 -26 77 -21 32 3 61 8 64 11 9
9 -17 62 -40 84 -44 40 -165 54 -240 28z"/>
<path d="M100 1101 l0 -231 70 0 70 0 0 90 c0 82 2 90 19 90 27 0 43 -19 91
-105 l41 -75 80 0 79 0 -26 52 c-41 81 -74 127 -97 134 -19 6 -17 8 16 25 20
11 43 33 52 49 20 38 19 105 -1 139 -30 52 -46 56 -226 59 l-168 4 0 -231z
m258 107 c18 -18 14 -46 -7 -58 -11 -5 -40 -10 -65 -10 l-46 0 0 40 0 40 53 0
c29 0 58 -5 65 -12z"/>
<path d="M810 1100 l0 -230 70 0 70 0 0 70 0 70 63 0 c117 0 177 55 177 164 0
44 -6 70 -20 94 -32 51 -70 62 -225 62 l-135 0 0 -230z m234 98 c20 -29 20
-34 -4 -58 -12 -12 -33 -20 -55 -20 l-35 0 0 50 0 50 39 0 c30 0 44 -6 55 -22z"/>
<path d="M570 1040 l0 -50 90 0 90 0 0 50 0 50 -90 0 -90 0 0 -50z"/>
<path d="M1240 1040 l0 -50 90 0 90 0 0 50 0 50 -90 0 -90 0 0 -50z"/>
<path d="M658 750 c-9 -6 -24 -31 -34 -56 -16 -42 -16 -46 0 -62 13 -14 20
-14 36 -4 16 10 20 10 20 -2 0 -21 -25 -37 -52 -34 -12 2 -25 -1 -28 -7 -3 -5
10 -11 28 -13 46 -5 67 17 93 97 12 36 24 72 27 79 2 6 -3 12 -12 12 -9 0 -16
-5 -16 -12 0 -9 -3 -9 -12 0 -14 14 -27 15 -50 2z m47 -47 c-8 -37 -30 -57
-50 -49 -30 11 2 76 37 76 17 0 19 -4 13 -27z"/>
<path d="M813 753 c-24 -9 -13 -23 17 -23 20 0 30 -5 30 -15 0 -10 -10 -15
-34 -15 -40 0 -68 -24 -64 -54 3 -18 10 -21 47 -21 l44 0 18 54 c14 40 16 58
8 68 -11 13 -42 16 -66 6z m31 -87 c-7 -18 -29 -27 -49 -20 -31 12 -14 34 26
34 20 0 27 -4 23 -14z"/>
<path d="M935 748 c-36 -97 -43 -128 -31 -128 8 0 22 24 32 53 15 39 25 53 42
55 27 4 29 -18 7 -72 -13 -30 -13 -36 -1 -36 7 0 22 24 33 53 15 39 26 53 43
55 21 3 22 1 17 -30 -3 -18 -9 -44 -13 -57 -11 -38 17 -21 32 20 27 74 11 114
-36 89 -16 -9 -25 -8 -36 1 -11 9 -21 9 -39 1 -15 -7 -25 -8 -25 -2 0 14 -20
12 -25 -2z"/>
<path d="M1176 739 c-30 -23 -47 -76 -34 -101 11 -22 47 -23 74 -3 18 13 17
14 -18 15 -27 0 -38 4 -38 15 0 11 12 15 45 15 39 0 45 3 51 25 13 51 -33 71
-80 34z m54 -24 c0 -10 -10 -15 -31 -15 -27 0 -30 2 -19 15 7 8 21 15 31 15
11 0 19 -7 19 -15z"/>
</g>
</svg>
